<svg xmlns="http://www.w3.org/2000/svg" viewBox="0 0 210 60">
<!-- SVG created with Arrow, by QuiverAI (https://quiver.ai) -->
  <path fill="#7f5539" d="m76.1 23.1c-1.4-1.6-3.6-2.8-6.9-2.8-2.8 0-5.2 1.2-7.5 3.3-1.5-1.9-3.6-3.3-6.7-3.3-2.4 0-4.4 0.8-6.2 2.4l-0.1-1.2c-0.1-0.4-0.3-0.7-0.8-0.7h-4.6c-0.4 0-0.8 0.3-0.8 0.7v20.5c0 0.4 0.3 0.7 0.8 0.7h4.5c0.5 0 0.9-0.3 0.9-0.7v-12.4c0-2.1 1.9-3.9 4.4-3.9 2.2 0 4 1.6 3.9 3.8v12.5c0 0.4 0.3 0.7 0.8 0.7h4.5c0.5 0 0.8-0.3 0.8-0.7v-12.3c0-2.3 2-4 4.3-4s4.3 1.6 4.3 3.8v12.5c0 0.4 0.3 0.7 0.8 0.7h4.4c0.5 0 0.9-0.3 0.9-0.7v-13.4c0-1.8-0.6-4-1.7-5.5z"/>
  <path fill="#7f5539" d="m91.9 20.3c-6.4 0-11.5 4.8-11.5 11.5 0.1 6.1 4.5 11.4 11.9 11.4 3.1 0 6.3-0.9 8-2.6 0.6-0.5 0.6-0.9 0.1-1.5l-1.8-2.4c-0.3-0.6-0.8-0.7-1.2-0.3-1.5 1.2-3.1 1.8-5 1.8-3.1 0-5.4-1.7-5.9-4.3h14.9c0.9 0 1.2-0.6 1.2-2.3 0.4-6-4-11.3-10.7-11.3zm-5.4 9.3c0.5-2.5 2.6-4.4 5.4-4.4 2.7 0 4.8 1.7 5.1 4.4h-10.5z"/>
  <path fill="#7f5539" d="m115.9 20.3c-6.4 0-11.2 4.8-11.2 11.4 0 6.1 4.3 11.4 11.7 11.4 3.1 0 6.3-0.9 8.3-2.6 0.6-0.5 0.6-1 0.2-1.5l-1.8-2.4c-0.4-0.5-0.8-0.7-1.3-0.3-1.4 1.2-3 1.8-5.3 1.8-2.7 0-5.6-1.6-6.1-4.3h15.1c1.2 0 1.4-0.5 1.4-2.3 0.5-5.9-3.9-11.2-11-11.2zm-5.5 9.3c0.5-2.3 2.6-4.4 5.5-4.4 2.7 0 5.2 1.7 5.4 4.4h-10.9z"/>
  <path fill="#7f5539" d="m147.1 21.9c-1.2-1.1-2.8-1.5-4.7-1.5-2.2 0-4.2 0.9-5.7 2.4v-1.3c0-0.4-0.3-0.7-0.8-0.7h-4.6c-0.4 0-0.8 0.3-0.8 0.7v20.4c0 0.4 0.3 0.8 0.8 0.7h4.5c0.5 0 0.8-0.2 0.8-0.7v-12.1c0-2.5 2.2-4.1 4.2-4.1 1.1 0 1.9 0.3 2.6 0.8 0.4 0.3 0.7 0.2 1.1-0.2l2.6-3.1c0.6-0.6 0.4-1 0-1.3z"/>
  <path fill="#7f5539" d="m158.9 25.7c2-0.2 3.7 0.6 4.8 1.6 0.4 0.4 0.8 0.5 1.2 0.1l2.2-2.4c0.6-0.6 0.6-1 0-1.6-2-1.7-4.6-3.1-8.2-3.1-6.3 0-12 4.7-12 11.5 0 5.8 4 11.3 11.8 11.3 3.2 0 6-0.9 8.1-2.8 0.6-0.5 0.7-1 0.2-1.5l-2.3-2.6c-0.4-0.4-0.8-0.6-1.3-0.2-1.1 0.9-2.3 1.7-4.5 1.7-3-0.1-5.8-2.4-5.8-6 0-3.3 2.4-5.7 5.8-6z"/>
  <path fill="#7f5539" d="m190.7 21.5c0-0.4-0.3-0.8-0.8-0.8h-3.4-1 0.4c-0.4 0 0 0 0 0h-0.2 0.2c-0.4 0 0.2 0 0 0-0.5 0 0.2 0 0 0-0.4 0 0.2 0 0 0-0.4 0 0.2 0 0 0-0.4 0 0.2 0 0 0-0.4 0 0.2 0 0 0-0.4 0 0.2 0 0 0-0.4 0 0 0 0 0-0.4 0 0 0 0 0-0.4 0 0.2 0 0 0-0.4 0 0.2 0 0 0-0.4 0 0.2 0 0 0-0.4 0 0 0 0 0-0.4 0 0 0 0 0-0.4 0 0.2 0 0 0-0.4 0 0.2 0 0 0-0.4 0 0.2 0 0 0-0.4 0 0.2 0 0 0-0.4 0 0.2 0 0 0-0.4 0 0.2 0 0 0-0.4 0 0.2 0 0 0-0.4 0 0 0 0 0-0.2 0 0.2 0 0 0-0.4 0 0 0 0 0-0.4 0 0.2 0 0 0-0.4 0 0.2 0 0 0-0.4 0 0.6 0 0 0-0.4 0 0.2 0 0 0-0.4 0 0.2 0 0 0-0.4 0 0 0 0 0-0.4 0 0 0 0 0-0.4 0 0 0 0 0-0.4 0 0 0 0 0-0.4 0 0 0 0 0-0.4 0 0 0 0 0-0.4 0 0 0 0 0-0.4 0 0 0 0 0-0.4 0 0 0 0 0-0.4 0 0 0 0 0-0.4 0 0 0 0 0-0.2 0 0.2 0 0 0-0.4 0 0 0 0 0-0.4 0 0 0 0 0-0.4 0 0 0 0 0-0.4 0 0 0 0 0-0.4 0 0 0 0 0-0.4 0 0 0 0 0-0.4 0 0 0 0 0-0.4 0 0 0 0 0-0.4 0 0 0 0 0-0.4 0 0 0 0 0-0.4 0 0 0 0 0-0.4 0 0 0 0 0s-0.4 0-0.4 0.4v1.6c-1.6-1.4-3.4-2.4-6.1-2.4-5.5-0.2-11.1 4.2-11.1 11.4 0 6.2 4.2 11.4 10.8 11.4 2.6 0 4.8-0.8 6.6-2.4v1.2c0 0.5 0.4 0.8 0.8 0.8h4.2c0.4 0 0.8-0.3 0.8-0.7v-20.5zm-10.3 16.2c-3.3 0.5-5.9-1.6-5.7-1.5-0.8-0.9-0.2-0.1 0 0-0.9-1-0.2-0.1 0 0-0.6-0.8-0.2-0.1 0 0-0.6-0.7-0.2-0.1 0 0-0.6-0.7-0.2-0.1 0 0-0.6-0.7-0.2-0.1 0 0-0.6-0.7-0.1-0.1 0 0-0.8-1.3-0.8-3.2 0 0-0.9-1.7-0.6-3.1-0.6-4.4 0-2.9 2.2-6.1 5.8-6.1 2.8 0 6 1.9 6 6 0 3-1.6 5.7-5.5 6z"/>
  <path fill="#7f5539" d="m207.9 20.7h-3.6v-7.9c0-0.3-0.4-0.7-0.6-0.7h-4.6c-0.4 0-0.8 0.3-0.8 0.7v7.9h-3.6c-0.4 0-0.9 0-0.9 0.8v3.9c0 0.6 0.5 0.7 0.9 0.7h3.6v15.9c0 0.4 0.4 0.8 0.8 0.7h4.4c0.4 0 0.8-0.2 0.8-0.7v-15.9h3.6c0.4 0 0.8-0.1 0.8-0.7v-3.9c0-0.8-0.4-0.8-0.8-0.8z"/>
  <path fill="#7f5539" d="m25.8 7.2c1.9-0.5 5.7-1.4 6-3.9 0.1-1.3-2.2 0.3-3.7-1.9-1-1.3-2.8-1.3-6.7-0.6-0.7 0.2-1.7 0.5-2.4 1.5-0.8 1.3-1.9 3.3-1.9 3.3h0.8c-0.1 2.3 0.6 4.5 0.3 6-0.7 2.9-1.9 5-0.5 7.8 0.3 0.6 0.4 4.7 0.4 5.3 0 5.2-2.4 8.4-2.4 13.2 0 2.1 0.6 4.5 0.6 4.5-0.2 1.7 0.2 7.5-5.4 8.7-2.4 0.5-8.6-0.2-9.5 7.7 2.7-4.8 5.5-5.1 8.8-5 3.2 0.2 5.7-0.2 8-3.4 1.2-1.7 1.1-4.1 1.1-4.1s0.8 2.6 0.6 6.5c-0.2 1.4 1 1.5 1.9 1.6 2.5 0 7.6 0.5 8.7 0.5v-0.2h1.3c-0.8-1.1-4.4-2-7.6-2.2-0.7 0-1.3-0.5-0.9-1.4 1.6-4 3.6-5.6 3.6-9.8 0-1.8-0.7-4.2-0.7-4.2l-0.8 1.2c0.4-1.7 2.3-4.5 2.3-7.8 0-2.5-1.8-3.8-3.1-4.2-1.6-0.4-2.5-1.9-2.4-4.2 0.1-2.1 1.2-4.3 1.2-4.3-0.8 2.2-1 5.1-0.8 6.3 1.9 1.5 3.5 1.5 4.5 3 2 2.6 1.6 3.8 1 7.2 0 0.6 0.6-0.2 0.4 0.8s0.4 2.5 0.5 1.5c0.5-1.7 1.6-5.1 1.5-7.1-0.2-1.9-1.4-5.6-2.2-7.2-1.6-3.2-0.1-4.6-1.2-7.4-1.2-2.6-4.1-3.8-2.9-6.6 0.3-0.8 1.1-0.9 1.6-1.1z"/>
  <path fill="#7f5539" d="m23.9 51.1c-0.4 0.5-0.6 1.4 0.4 1.4 1.8 0 3.5 0.3 4.6 0.7 0.5-0.4 1.2-0.7 2.2-0.8-0.2-1.2-5.2-1.3-6-1.1-0.6 0.2-1.2-0.4-1.2-0.2z"/>
</svg>
